<?xml version="1.0" standalone="no"?>
<!DOCTYPE svg PUBLIC "-//W3C//DTD SVG 20010904//EN"
 "http://www.w3.org/TR/2001/REC-SVG-20010904/DTD/svg10.dtd">
<svg version="1.0" xmlns="http://www.w3.org/2000/svg"
 width="500.000000pt" height="500.000000pt" viewBox="0 0 500.000000 500.000000"
 preserveAspectRatio="xMidYMid meet">

<g transform="translate(0.000000,500.000000) scale(0.100000,-0.100000)"
fill="#000000" stroke="none">
<path d="M2819 4615 c-38 -21 -61 -61 -62 -111 0 -55 24 -84 105 -125 62 -31
79 -60 59 -98 -23 -41 -91 -39 -143 4 -30 26 -53 24 -68 -5 -14 -27 45 -75
108 -89 91 -19 160 18 182 97 17 66 -3 101 -90 152 -77 45 -88 59 -72 94 19
43 79 40 145 -6 15 -11 21 -9 37 12 23 30 14 45 -45 71 -48 22 -120 24 -156 4z"/>
<path d="M2323 4499 c-45 -29 -66 -80 -61 -146 5 -57 25 -92 71 -127 49 -36
166 -21 205 27 10 11 9 17 -4 28 -13 10 -21 10 -47 0 -78 -32 -125 -20 -145
38 l-10 29 76 7 c42 3 88 7 102 8 49 4 32 104 -24 138 -42 26 -121 25 -163 -2z
m129 -46 c10 -9 18 -24 18 -35 0 -15 -8 -18 -60 -18 -33 0 -63 0 -67 1 -12 1
-3 32 14 52 20 22 71 22 95 0z"/>
<path d="M2141 4481 c-10 -10 -21 -25 -24 -32 -5 -11 -8 -10 -17 4 -9 14 -70
26 -70 14 0 -11 61 -301 63 -304 2 -2 18 0 35 3 37 7 37 12 17 104 -8 36 -14
77 -15 93 0 34 32 67 65 67 26 0 32 19 19 54 -8 22 -50 20 -73 -3z"/>
<path d="M3042 4264 c-35 -108 -62 -197 -60 -199 2 -1 18 -7 36 -13 l32 -11
17 60 16 59 22 -20 c67 -63 164 -38 209 53 71 140 -8 262 -136 212 -14 -6 -18
-2 -18 14 0 17 -31 41 -53 41 -1 0 -30 -88 -65 -196z m216 79 c6 -9 12 -27 12
-40 0 -29 -25 -91 -47 -115 -32 -35 -113 -12 -113 32 0 33 33 115 53 133 25
22 75 16 95 -10z"/>
<path d="M3487 4418 c-28 -48 -177 -345 -177 -353 0 -2 13 -11 29 -20 l30 -15
52 100 c41 78 58 102 78 107 32 8 75 -16 79 -44 2 -12 -19 -66 -47 -120 l-49
-100 30 -18 c35 -20 28 -28 93 97 62 119 61 179 -5 213 -16 8 -45 15 -65 15
l-35 0 35 70 c19 38 35 73 35 78 0 7 -42 32 -55 32 -1 0 -14 -19 -28 -42z"/>
<path d="M1508 4424 c-16 -8 -28 -17 -28 -19 0 -3 43 -95 96 -205 l97 -199 31
16 c17 8 32 17 34 18 3 3 -196 405 -201 405 -1 -1 -14 -8 -29 -16z"/>
<path d="M1784 4391 c-52 -32 -74 -68 -74 -123 0 -139 115 -217 229 -156 88
47 106 156 41 244 -42 56 -134 73 -196 35z m113 -55 c27 -23 53 -81 53 -120 0
-28 -46 -66 -79 -66 -54 0 -104 88 -87 156 4 16 19 31 39 39 42 19 41 19 74
-9z"/>
<path d="M1354 4176 c-19 -19 -34 -41 -34 -50 0 -12 -7 -14 -27 -10 -16 3 -36
-1 -45 -8 -16 -12 -8 -28 90 -180 59 -92 110 -170 114 -173 8 -8 58 24 58 37
0 5 -13 29 -30 53 -16 24 -30 45 -30 47 0 2 13 4 30 5 40 3 75 28 94 68 21 43
20 70 -5 125 -52 116 -147 154 -215 86z m109 -63 c25 -27 57 -90 57 -113 0
-20 -49 -60 -74 -60 -20 0 -34 13 -66 60 -44 65 -46 98 -7 125 32 22 60 18 90
-12z"/>
<path d="M3720 4107 c-58 -30 -104 -112 -97 -169 10 -74 85 -138 162 -138 32
0 36 3 33 22 -2 15 -14 24 -41 32 -73 21 -108 83 -74 129 11 16 19 12 89 -38
42 -30 81 -55 87 -55 19 0 51 63 51 98 0 66 -55 123 -130 137 -26 5 -46 0 -80
-18z m124 -58 c27 -21 36 -71 16 -84 -6 -3 -35 11 -65 32 -55 38 -55 38 -34
56 28 22 50 22 83 -4z"/>
<path d="M1152 4037 c-24 -25 -27 -58 -13 -119 5 -21 7 -38 5 -38 -2 0 -31 8
-64 17 -59 16 -61 16 -88 -4 -15 -11 -26 -24 -25 -29 1 -5 37 -17 80 -28 43
-10 79 -20 81 -21 6 -5 29 -175 24 -175 -3 0 -13 7 -22 15 -15 13 -20 10 -53
-33 -20 -26 -48 -60 -61 -76 l-24 -29 -51 38 -50 38 32 40 c74 90 71 84 42
103 -25 16 -26 16 -48 -12 -12 -16 -34 -42 -48 -59 l-27 -29 -46 38 c-40 33
-45 40 -34 54 7 10 34 43 61 76 45 56 47 60 31 77 -9 11 -22 19 -28 19 -10 -1
-168 -190 -173 -207 -1 -4 59 -57 133 -117 73 -61 134 -113 134 -118 0 -4 5
-8 12 -8 6 0 21 -9 33 -20 l22 -21 97 120 c53 65 104 122 113 125 13 5 15 18
9 81 -4 41 -4 75 0 75 4 0 34 -7 65 -16 l58 -16 31 25 c16 14 27 28 23 30 -5
2 -47 14 -95 27 l-86 22 -7 72 c-4 39 -10 79 -14 89 -6 16 -9 16 -29 -6z"/>
<path d="M2335 3985 c-410 -67 -835 -336 -1057 -670 -64 -96 -178 -316 -178
-343 0 -10 -8 -8 -27 6 -49 33 -59 37 -39 14 11 -12 14 -22 9 -22 -13 0 -36
27 -39 45 -2 15 -67 76 -73 69 -2 -2 13 -20 35 -39 29 -25 34 -34 21 -35 -10
0 -21 -8 -24 -17 -4 -10 -12 -22 -19 -28 -28 -23 -169 -441 -195 -576 -6 -35
-16 -69 -20 -75 -5 -6 -28 -16 -51 -23 -24 -7 -66 -28 -93 -46 -67 -45 -155
-161 -140 -185 6 -10 164 -62 225 -75 48 -10 60 -22 60 -62 0 -19 31 -127 69
-241 38 -114 81 -247 96 -297 l27 -90 122 -123 c168 -172 347 -332 559 -502
189 -151 223 -190 229 -261 l3 -34 -98 -3 c-77 -2 -99 -6 -104 -18 -3 -8 -1
-20 4 -25 10 -10 1817 -14 1834 -4 5 4 9 15 9 25 0 18 -9 20 -102 22 -98 3
-103 4 -106 26 -6 39 42 126 89 163 161 127 296 237 374 304 137 117 394 364
421 404 13 20 48 113 78 206 30 94 73 222 95 285 23 63 44 140 47 170 6 45 14
63 46 98 64 70 114 195 133 329 9 66 -1 71 -99 54 -117 -22 -105 -30 -138 94
-27 105 -103 336 -134 411 -13 30 -17 34 -30 23 -13 -11 -14 -9 -3 14 26 56
-46 78 -107 32 l-32 -25 -65 133 c-212 432 -500 689 -927 825 -208 66 -508 96
-685 67z m495 -68 c172 -36 378 -120 527 -216 61 -39 63 -41 51 -68 -19 -45
-23 -46 -92 -34 -80 14 -119 1 -162 -53 -16 -20 -50 -50 -75 -66 -51 -33 -69
-64 -69 -116 0 -39 36 -84 67 -84 13 0 9 -6 -14 -21 -18 -12 -33 -26 -33 -31
0 -17 -29 12 -36 35 -9 30 -44 67 -64 67 -23 0 -60 -29 -60 -47 0 -8 -13 -31
-30 -50 -53 -60 -38 -100 52 -133 32 -12 60 -25 63 -30 3 -5 -12 -14 -32 -20
-79 -26 -110 -86 -78 -154 19 -40 22 -32 -62 -148 -35 -47 -70 -102 -78 -122
-35 -84 -2 -230 70 -301 64 -64 127 -78 224 -49 29 8 60 13 67 10 20 -8 44
-68 44 -108 0 -18 12 -55 26 -83 25 -45 26 -53 15 -98 -17 -74 -13 -126 14
-207 14 -40 25 -80 25 -89 0 -8 9 -34 21 -58 37 -77 117 -77 203 -2 50 44 77
88 95 155 6 22 21 49 33 60 21 19 21 19 14 -1 -4 -11 -18 -61 -31 -111 -12
-51 -27 -98 -31 -106 -26 -43 -212 -239 -238 -252 -17 -7 -91 -39 -165 -71
-218 -92 -286 -131 -360 -205 -46 -47 -74 -53 -214 -48 l-105 3 -48 45 c-69
65 -132 106 -237 155 -83 39 -88 43 -49 38 87 -11 110 57 44 130 -21 23 -42
50 -45 60 -7 20 13 66 37 86 9 8 39 56 67 108 45 84 56 97 93 113 51 21 70 48
90 128 9 33 25 79 36 103 25 56 25 86 0 126 -15 26 -32 36 -87 53 -84 25 -100
37 -139 103 -25 43 -42 58 -100 89 -44 24 -83 37 -109 38 -22 0 -60 9 -84 20
-53 25 -101 25 -164 3 -64 -23 -80 -12 -89 57 -8 65 -32 92 -90 99 -35 5 -44
10 -46 30 -7 48 5 68 45 74 21 2 44 6 52 8 10 3 17 -9 23 -35 11 -51 23 -64
64 -72 32 -6 34 -8 34 -49 0 -54 19 -75 70 -75 42 0 75 22 85 57 8 29 -34 73
-70 73 -62 0 -87 49 -65 129 13 48 75 116 140 152 21 12 46 36 55 53 l18 32
37 -18 c45 -23 78 -13 111 31 14 19 32 31 46 31 29 0 73 42 73 70 0 21 -32 60
-50 60 -5 0 -9 19 -8 42 1 35 -4 45 -31 70 l-32 28 24 11 c31 14 67 78 67 119
0 24 -11 45 -45 82 -25 28 -45 54 -45 59 0 17 -66 42 -125 48 -58 6 -61 7 -81
46 -11 22 -31 45 -43 51 -23 12 -22 12 20 37 119 70 312 137 464 162 114 18
398 14 505 -8z m-1092 -239 c-9 -13 -24 -24 -34 -26 -15 -2 -13 2 9 23 35 31
44 32 25 3z m92 -13 c0 -8 -9 -15 -20 -15 -20 0 -26 11 -13 23 12 13 33 7 33
-8z m-144 -77 c22 -44 30 -48 92 -48 44 0 57 4 77 26 22 24 28 25 82 18 82
-10 99 -18 149 -72 52 -56 58 -96 19 -132 l-24 -23 -31 26 c-17 15 -46 34 -65
43 -41 19 -43 29 -13 53 39 32 -5 56 -55 30 -30 -16 -38 -30 -32 -56 5 -22
-17 -53 -38 -53 -7 0 -21 7 -31 15 -31 24 -51 18 -90 -25 -53 -59 -44 -130 17
-130 35 0 45 -12 49 -55 2 -32 7 -40 22 -40 13 0 22 10 27 29 4 15 14 36 22
45 8 9 22 34 31 56 19 44 53 85 72 85 23 0 84 -66 84 -91 0 -18 8 -28 30 -36
37 -14 40 -46 7 -86 -22 -28 -24 -29 -66 -17 -29 8 -47 8 -54 1 -16 -16 -1
-38 34 -45 41 -8 59 -23 59 -50 0 -48 -54 -63 -70 -21 -5 14 -15 25 -22 25
-27 -1 -62 -29 -77 -61 -10 -22 -33 -43 -63 -59 -26 -14 -70 -51 -97 -83 -49
-56 -51 -61 -51 -117 0 -69 -15 -88 -23 -28 -9 64 -24 74 -98 60 -83 -15 -119
-48 -119 -109 0 -52 22 -77 76 -88 51 -9 64 -21 64 -60 0 -108 56 -139 167
-93 l53 22 53 -22 c29 -12 67 -22 86 -22 18 0 63 -14 99 -32 52 -26 71 -42 98
-84 41 -65 71 -88 137 -110 102 -33 116 -57 77 -134 -11 -22 -25 -63 -31 -92
-16 -74 -25 -87 -74 -109 -46 -20 -86 -73 -125 -163 -11 -27 -36 -67 -55 -88
-46 -50 -47 -98 -6 -156 16 -22 34 -43 40 -47 22 -13 11 -35 -17 -35 -61 0
-152 94 -185 190 -8 25 -24 96 -36 158 -11 62 -29 132 -39 155 -10 23 -52 76
-93 117 -78 78 -119 146 -119 196 0 17 11 58 25 92 36 89 34 109 -13 122 -43
11 -66 32 -77 70 -19 61 -69 100 -129 100 -33 0 -72 49 -84 107 -11 48 -57
143 -70 143 -25 -1 -31 -17 -20 -53 6 -20 8 -40 4 -44 -15 -15 -36 31 -36 77
0 25 -11 81 -25 123 l-26 78 51 106 c69 145 148 260 256 372 88 92 92 95 118
83 38 -17 73 -15 80 5 7 18 -9 33 -36 33 -21 0 -23 11 -6 28 21 21 47 13 64
-20z m99 -6 c-8 -9 -45 11 -45 24 0 12 4 12 24 -3 13 -10 23 -20 21 -21z
m1705 12 c0 -8 -10 -14 -25 -14 -27 0 -32 9 -14 27 14 14 39 6 39 -13z m-135
-49 c78 -19 129 -19 165 0 l28 15 81 -86 c169 -181 293 -404 351 -633 24 -98
53 -267 48 -283 -3 -7 -21 20 -42 59 -21 40 -49 79 -63 89 -14 9 -56 20 -92
24 -67 9 -83 19 -117 76 -9 15 -15 16 -24 7 -32 -31 26 -107 90 -117 31 -5 41
-11 46 -31 5 -20 -6 -38 -56 -100 -35 -41 -65 -75 -67 -75 -20 0 -75 60 -89
96 -20 53 -50 58 -47 9 4 -44 52 -106 111 -139 80 -46 73 -79 -37 -186 -79
-77 -91 -108 -91 -238 l0 -91 -39 -45 c-26 -29 -43 -62 -51 -98 -11 -43 -24
-63 -71 -110 -44 -45 -64 -58 -87 -58 -38 0 -47 12 -66 85 -8 33 -25 89 -36
125 -20 63 -20 66 -3 138 l17 74 -26 46 c-14 26 -28 71 -31 100 -7 63 -32 111
-69 132 -24 13 -32 13 -75 -3 -83 -30 -162 -20 -211 26 -29 27 -62 134 -62
201 0 49 5 59 75 158 87 123 96 128 224 128 84 0 87 -1 113 -30 l26 -30 153 0
c169 0 189 7 189 62 0 48 -16 68 -55 68 -50 0 -64 8 -86 51 -21 41 -28 46 -46
28 -8 -8 -7 -20 3 -45 9 -22 10 -35 3 -39 -14 -9 -36 11 -66 62 -33 56 -58 55
-58 -2 0 -55 -24 -57 -59 -5 -36 55 -69 53 -110 -9 -60 -90 -166 -89 -166 2 0
30 17 45 59 53 35 7 61 37 61 71 0 12 9 27 19 33 11 5 25 27 31 47 21 66 34
73 122 73 64 0 81 3 94 19 9 10 27 31 40 45 33 37 30 52 -11 66 -42 14 -44 31
-10 72 29 34 31 46 9 55 -10 4 -32 -11 -64 -42 -47 -47 -49 -49 -47 -104 2
-49 0 -56 -17 -56 -14 0 -22 10 -28 33 -9 35 -18 38 -48 20 -17 -11 -22 -10
-30 2 -17 27 -11 52 21 79 17 14 59 52 93 83 68 64 81 67 181 43z m-1549 -180
c10 -8 27 -15 37 -15 20 0 21 -10 5 -44 -9 -20 -14 -23 -25 -14 -7 6 -30 11
-50 12 -44 1 -50 14 -23 49 25 31 29 32 56 12z m1162 -145 l32 -59 -24 -17
c-34 -22 -45 -11 -39 35 4 27 0 46 -11 62 -19 28 -20 39 -3 39 6 0 27 -27 45
-60z m-70 -32 c-4 -29 -38 -38 -38 -10 0 22 8 32 27 32 9 0 13 -8 11 -22z
m-741 -75 c6 -18 -37 -37 -51 -23 -8 8 -6 15 9 26 21 15 37 14 42 -3z m-1129
-169 c40 -28 42 -43 16 -154 -30 -126 -43 -388 -25 -484 6 -33 10 -61 8 -62
-1 -2 -29 10 -62 26 -33 16 -81 32 -106 36 -76 10 -75 6 -34 160 38 142 163
494 174 494 4 0 17 -7 29 -16z m3157 -195 c50 -145 105 -332 105 -359 0 -11
-23 -28 -62 -48 -35 -17 -82 -47 -105 -67 l-42 -35 6 142 c6 156 -5 279 -39
422 l-21 90 39 35 38 35 17 -41 c10 -23 38 -101 64 -174z m-992 131 c18 0 38
4 46 9 11 7 24 2 45 -16 22 -19 36 -23 55 -18 59 16 128 17 134 2 13 -35 -6
-40 -147 -32 -120 6 -136 9 -141 26 -7 20 -26 27 -87 31 l-37 3 21 33 21 33
29 -35 c23 -28 37 -36 61 -36z m-2034 -105 c2 -82 43 -130 104 -122 14 1 23
-11 37 -47 25 -63 45 -84 94 -97 77 -21 85 -27 110 -84 20 -44 33 -58 63 -72
21 -10 40 -19 42 -20 3 -2 -6 -29 -20 -61 -50 -118 -20 -216 102 -332 76 -72
101 -120 119 -220 21 -127 41 -203 64 -249 24 -47 125 -151 147 -151 7 0 10
-3 7 -6 -3 -3 -24 4 -47 15 -22 12 -65 30 -95 42 -36 13 -69 35 -93 62 -21 23
-71 75 -110 117 l-73 76 -29 116 c-62 248 -187 401 -327 402 -41 0 -59 -5 -87
-27 l-35 -27 -11 33 c-28 86 -42 174 -48 297 -6 147 3 245 39 390 l21 84 13
-34 c7 -19 13 -57 13 -85z m2779 -182 c26 -47 55 -87 70 -94 25 -14 25 -14 19
-119 -3 -58 -13 -139 -22 -180 -25 -118 -20 -112 -61 -85 -56 38 -111 42 -170
12 -53 -27 -121 -94 -151 -148 l-18 -34 -3 90 c-4 120 12 160 82 214 84 62
109 131 81 216 -5 16 7 35 49 82 47 51 56 67 56 98 0 54 17 41 68 -52z m-2131
-19 c8 -20 -9 -36 -30 -28 -20 7 -22 30 -4 37 21 9 27 7 34 -9z m2698 -246
c-15 -101 -63 -212 -117 -274 -39 -44 -134 -90 -206 -100 -28 -3 -85 -3 -126
1 l-76 7 51 99 c64 125 130 199 212 238 67 32 195 69 240 70 28 1 29 0 22 -41z
m-3583 -90 c69 -24 126 -82 153 -151 10 -26 15 -50 12 -53 -2 -3 -43 -12 -88
-20 -114 -20 -273 -5 -404 37 -52 16 -95 33 -95 36 0 15 54 84 84 106 101 77
210 92 338 45z m405 -165 c21 -9 55 -42 81 -77 73 -99 110 -192 137 -350 5
-31 29 -62 130 -170 122 -129 125 -132 217 -170 51 -22 152 -67 224 -102 111
-53 141 -72 200 -131 130 -127 172 -247 181 -520 l6 -171 -289 -4 c-159 -2
-297 0 -306 5 -10 4 -18 18 -18 30 0 76 -85 174 -281 324 -126 97 -269 223
-475 419 l-152 144 -101 311 c-56 171 -101 318 -99 327 3 14 23 18 128 23 69
4 137 10 151 14 24 6 21 0 -27 -52 -30 -32 -54 -66 -54 -76 0 -9 41 -98 90
-198 70 -139 95 -180 108 -177 33 6 22 44 -59 208 l-81 165 49 42 c26 24 51
43 55 43 18 0 72 -172 85 -275 20 -150 34 -182 127 -304 102 -135 209 -279
310 -416 105 -143 134 -175 152 -168 8 3 14 12 14 20 0 18 -190 283 -369 516
-71 92 -137 187 -146 210 -9 23 -21 83 -26 133 -4 50 -13 103 -19 118 -16 44
-12 54 29 76 22 11 47 30 55 42 22 32 20 94 -5 134 -11 19 -21 34 -22 34 -1 0
-27 9 -57 20 l-55 19 38 0 c22 1 55 -7 74 -16z m2519 2 c-70 -19 -107 -60
-113 -122 -5 -42 -1 -53 21 -80 15 -18 37 -35 49 -39 42 -13 46 -21 32 -69 -8
-24 -18 -84 -24 -133 -5 -49 -16 -106 -25 -125 -8 -20 -86 -130 -174 -244
-318 -416 -364 -487 -325 -500 16 -6 42 24 155 179 54 76 158 213 230 305 72
93 141 191 154 219 23 49 29 73 54 227 18 113 69 227 102 227 15 0 78 -62 78
-77 0 -8 -36 -85 -80 -171 -81 -157 -92 -197 -56 -197 15 0 39 39 108 175 48
96 88 184 88 196 0 12 -7 27 -15 34 -25 21 -18 25 48 28 56 3 112 13 153 29 8
3 14 -1 14 -8 0 -8 -44 -149 -97 -314 l-98 -300 -135 -135 c-159 -160 -312
-294 -545 -481 -181 -145 -206 -175 -225 -267 l-11 -51 -292 -3 c-161 -2 -298
-1 -306 1 -20 6 -9 341 13 426 24 90 71 178 127 239 83 91 132 118 481 270 85
37 92 43 198 160 115 126 125 144 154 269 30 129 126 291 196 328 19 10 53 18
75 18 l40 -1 -49 -13z m-2567 -59 c31 -17 53 -58 44 -83 -11 -31 -46 -63 -69
-63 -18 0 -27 12 -48 66 -15 37 -25 73 -22 80 7 18 60 18 95 0z m2640 5 c12
-8 10 -20 -13 -73 -39 -87 -46 -94 -84 -74 -59 31 -58 109 3 144 24 14 75 15
94 3z m-1305 -1077 c-17 -36 -37 -93 -44 -127 -16 -75 -29 -105 -30 -64 0 37
-46 172 -71 214 l-20 32 88 4 c48 1 93 4 99 5 5 1 -4 -28 -22 -64z"/>
<path d="M2004 3796 c-29 -13 -64 -40 -79 -60 -24 -32 -26 -40 -17 -61 10 -21
19 -25 54 -25 24 0 61 -5 82 -10 23 -5 47 -5 56 0 12 7 23 1 42 -21 22 -24 34
-29 73 -29 l47 0 -6 -35 c-5 -23 -2 -45 9 -66 13 -24 14 -37 6 -61 -22 -63 43
-137 108 -123 15 3 50 29 78 58 35 37 65 57 103 71 66 22 114 68 129 121 15
54 14 198 -1 213 -8 8 -67 12 -198 12 -161 0 -195 3 -245 20 -82 28 -175 27
-241 -4z m245 -46 c55 -18 84 -21 234 -20 l172 2 -4 -78 c-1 -43 -7 -87 -11
-98 -12 -31 -50 -62 -95 -76 -55 -18 -102 -52 -132 -95 -30 -44 -69 -46 -92
-3 -14 25 -14 29 7 51 28 30 28 35 -4 60 -22 17 -25 26 -20 56 3 21 0 47 -7
61 -10 21 -21 26 -67 30 -48 4 -55 8 -58 28 -3 17 1 22 20 22 31 0 63 23 54
38 -16 26 -78 10 -153 -38 -20 -13 -25 -12 -53 15 -16 16 -30 34 -30 41 0 17
75 34 131 29 25 -2 74 -13 108 -25z"/>
<path d="M2658 3436 c-21 -15 -24 -66 -6 -84 15 -15 92 -16 119 -2 22 12 27
68 7 88 -16 16 -99 15 -120 -2z m83 -41 c0 -5 -7 -12 -16 -13 -23 -5 -47 6
-40 19 8 13 56 8 56 -6z"/>
<path d="M2560 1720 c0 -20 5 -21 98 -18 78 2 97 6 97 18 0 12 -19 16 -97 18
-93 3 -98 2 -98 -18z"/>
<path d="M2282 1338 c6 -16 466 -19 471 -3 1 6 -84 11 -236 13 -189 2 -238 0
-235 -10z"/>
<path d="M3921 3849 l-105 -110 28 -27 28 -27 66 72 c79 85 106 95 149 59 27
-23 32 -24 51 -10 12 8 22 21 22 28 0 23 -36 46 -73 46 -34 0 -36 2 -25 19 10
17 9 23 -6 40 -11 12 -22 21 -25 20 -3 0 -53 -50 -110 -110z"/>
<path d="M4120 3739 c-32 -13 -78 -56 -96 -91 -39 -75 10 -184 99 -217 58 -22
66 24 10 60 -21 13 -44 36 -52 51 -14 24 -14 30 2 62 9 20 21 36 26 36 5 0 36
-34 68 -75 44 -56 63 -74 77 -70 11 2 25 -4 32 -13 8 -10 14 -12 14 -5 0 6 -4
14 -9 18 -6 3 -1 21 11 41 27 45 27 107 1 142 -47 63 -118 87 -183 61z m125
-74 c14 -13 25 -31 25 -40 0 -21 -18 -55 -29 -55 -5 0 -28 23 -52 51 -34 41
-39 53 -28 60 25 16 59 10 84 -16z"/>
<path d="M4190 3400 c0 -16 2 -30 4 -30 2 0 6 14 8 30 3 17 1 30 -4 30 -4 0
-8 -13 -8 -30z"/>
<path d="M772 3368 c-7 -7 -12 -22 -12 -35 0 -13 -7 -26 -15 -29 -8 -4 -12
-10 -9 -15 3 -5 1 -9 -4 -9 -5 0 -13 10 -17 23 -4 13 -8 17 -12 9 -2 -6 -9
-10 -14 -6 -5 3 -9 1 -9 -5 0 -6 -8 -7 -17 -4 -12 5 -15 2 -10 -10 5 -14 0
-17 -23 -17 -17 0 -30 -4 -30 -10 0 -10 11 -13 40 -11 9 0 10 -2 3 -5 -9 -4
-9 -13 -2 -31 5 -15 8 -32 5 -40 -8 -21 12 -15 50 13 l34 26 1 -33 c1 -22 3
-27 6 -14 8 31 26 36 50 13 20 -19 26 -20 47 -9 28 15 24 51 -6 58 -10 3 -18
13 -18 23 0 10 -3 20 -7 23 -5 2 -2 2 5 1 6 -2 12 1 12 6 0 5 9 12 21 15 16 5
18 10 8 21 -6 8 -20 14 -31 14 -10 0 -17 4 -14 9 7 11 -3 41 -13 41 -4 0 -12
-5 -19 -12z m-3 -109 c-7 -4 -16 -6 -20 -3 -4 2 -10 -2 -12 -8 -4 -9 -6 -7 -6
3 -1 11 7 17 25 17 17 0 22 -3 13 -9z m-94 -9 c3 -5 1 -10 -4 -10 -6 0 -11 5
-11 10 0 6 2 10 4 10 3 0 8 -4 11 -10z m35 -14 c0 -3 -4 -8 -10 -11 -5 -3 -10
-1 -10 4 0 6 5 11 10 11 6 0 10 -2 10 -4z m105 -36 c3 -6 -1 -7 -9 -4 -18 7
-21 14 -7 14 6 0 13 -4 16 -10z"/>
<path d="M4429 3368 c-1 -7 -1 -19 0 -25 1 -10 -5 -10 -23 -3 -14 5 -28 5 -31
1 -3 -5 -15 -7 -26 -4 -18 5 -20 3 -11 -13 6 -11 23 -32 38 -47 l27 -27 -39
-1 c-22 -1 -30 -3 -19 -6 30 -8 35 -24 14 -46 -22 -24 -23 -36 -6 -57 16 -21
36 -19 50 5 17 28 32 28 59 0 16 -17 26 -21 35 -13 17 14 17 42 1 32 -8 -4 -9
-3 -5 2 5 5 20 9 33 9 28 0 36 14 14 26 -45 24 -83 38 -90 34 -5 -3 -6 -15 -3
-28 4 -20 3 -20 -7 -4 -9 15 -8 22 6 38 9 10 26 19 37 19 15 0 17 3 8 13 -6 8
-8 17 -4 20 3 4 1 7 -6 7 -8 0 -11 6 -7 16 4 12 2 15 -9 10 -11 -4 -15 2 -15
24 0 29 -19 44 -21 18z m11 -52 c0 -3 -4 -8 -10 -11 -5 -3 -10 -1 -10 4 0 6 5
11 10 11 6 0 10 -2 10 -4z"/>
<path d="M4301 3284 c6 -8 18 -14 26 -14 20 0 8 16 -17 23 -17 4 -19 3 -9 -9z"/>
<path d="M982 3245 c13 -29 23 -32 32 -9 8 21 -1 34 -24 34 -17 0 -18 -3 -8
-25z"/>
<path d="M4125 3251 c22 -25 57 -29 48 -6 -3 9 -8 14 -10 11 -3 -3 -17 0 -31
5 -26 10 -26 10 -7 -10z"/>
<path d="M4116 3204 c-8 -22 -8 -24 8 -24 8 0 17 -6 19 -12 3 -7 6 2 6 20 1
34 -22 46 -33 16z"/>
<path d="M990 3165 c-6 -8 -10 -19 -8 -24 1 -6 8 1 15 14 13 28 11 31 -7 10z"/>
<path d="M4197 3160 c3 -11 1 -26 -3 -33 -5 -7 -1 -4 9 6 21 23 22 47 3 47 -9
0 -12 -7 -9 -20z"/>
<path d="M697 3147 c-11 -29 -9 -43 4 -30 6 6 9 19 7 29 -3 18 -4 18 -11 1z"/>
<path d="M486 3101 c-4 -5 3 -7 14 -4 23 6 26 13 6 13 -8 0 -17 -4 -20 -9z"/>
<path d="M4150 3085 c0 -14 2 -25 4 -25 2 0 6 11 8 25 3 14 1 25 -3 25 -5 0
-9 -11 -9 -25z"/>
<path d="M4211 3009 c-18 -21 -29 -39 -25 -39 5 0 24 18 42 40 18 22 30 40 25
39 -4 0 -23 -18 -42 -40z"/>
<path d="M4628 3043 c7 -3 16 -2 19 1 4 3 -2 6 -13 5 -11 0 -14 -3 -6 -6z"/>
<path d="M807 3033 c-14 -14 -6 -19 23 -15 17 2 30 8 30 13 0 10 -43 12 -53 2z"/>
<path d="M563 3013 c9 -2 25 -2 35 0 9 3 1 5 -18 5 -19 0 -27 -2 -17 -5z"/>
<path d="M734 2983 c-3 -16 -8 -35 -10 -43 -2 -9 2 -8 11 4 14 18 21 66 10 66
-2 0 -7 -12 -11 -27z"/>
<path d="M4301 2996 c2 -2 15 -9 29 -15 24 -11 24 -11 6 3 -16 13 -49 24 -35
12z"/>
<path d="M4415 2990 c-3 -5 -16 -11 -28 -11 -20 -1 -21 -2 -2 -6 11 -3 25 -9
31 -14 14 -11 24 -1 24 23 0 19 -15 24 -25 8z"/>
<path d="M878 2983 c6 -2 18 -2 25 0 6 3 1 5 -13 5 -14 0 -19 -2 -12 -5z"/>
<path d="M760 2956 c0 -7 9 -16 20 -19 13 -3 20 0 20 8 0 7 6 16 13 18 6 3 -3
6 -20 6 -22 1 -33 -4 -33 -13z"/>
</g>
</svg>
